<svg xmlns="http://www.w3.org/2000/svg" xmlns:xlink="http://www.w3.org/1999/xlink" width="500" zoomAndPan="magnify" viewBox="0 0 375 374.999991" height="500" preserveAspectRatio="xMidYMid meet" version="1.0"><defs><g/></defs><g fill="#30cfd0" fill-opacity="1"><g transform="translate(-8.370911, 257.999983)"><g><path d="M 126.6875 -100.28125 C 134.070312 -99.894531 141.03125 -98.328125 147.5625 -95.578125 C 154.101562 -92.835938 159.785156 -89.191406 164.609375 -84.640625 C 169.441406 -80.097656 173.273438 -74.890625 176.109375 -69.015625 C 178.953125 -63.148438 180.375 -56.8125 180.375 -50 C 180.375 -43.175781 178.90625 -36.734375 175.96875 -30.671875 C 173.039062 -24.617188 169.019531 -19.316406 163.90625 -14.765625 C 158.789062 -10.222656 152.773438 -6.625 145.859375 -3.96875 C 138.953125 -1.320312 131.613281 0 123.84375 0 L 90.328125 0 C 94.878906 0 99.140625 -1.367188 103.109375 -4.109375 C 107.085938 -6.859375 110.59375 -10.503906 113.625 -15.046875 C 116.65625 -19.597656 119.019531 -24.898438 120.71875 -30.953125 C 122.425781 -37.015625 123.28125 -43.457031 123.28125 -50.28125 C 123.28125 -56.90625 122.425781 -63.195312 120.71875 -69.15625 C 119.019531 -75.125 116.65625 -80.332031 113.625 -84.78125 C 110.59375 -89.238281 107.085938 -92.789062 103.109375 -95.4375 C 99.140625 -98.09375 94.878906 -99.421875 90.328125 -99.421875 L 84.65625 -99.421875 C 88.625 -99.421875 92.359375 -100.742188 95.859375 -103.390625 C 99.367188 -106.046875 102.398438 -109.597656 104.953125 -114.046875 C 107.515625 -118.492188 109.550781 -123.703125 111.0625 -129.671875 C 112.582031 -135.640625 113.34375 -141.9375 113.34375 -148.5625 C 113.34375 -155.382812 112.582031 -161.820312 111.0625 -167.875 C 109.550781 -173.9375 107.515625 -179.238281 104.953125 -183.78125 C 102.398438 -188.332031 99.367188 -191.976562 95.859375 -194.71875 C 92.359375 -197.46875 88.625 -198.84375 84.65625 -198.84375 L 113.90625 -198.84375 C 120.726562 -198.84375 127.164062 -197.515625 133.21875 -194.859375 C 139.28125 -192.210938 144.582031 -188.613281 149.125 -184.0625 C 153.675781 -179.519531 157.226562 -174.21875 159.78125 -168.15625 C 162.34375 -162.101562 163.625 -155.570312 163.625 -148.5625 C 163.625 -142.882812 162.675781 -137.441406 160.78125 -132.234375 C 158.882812 -127.023438 156.28125 -122.289062 152.96875 -118.03125 C 149.65625 -113.769531 145.769531 -110.078125 141.3125 -106.953125 C 136.863281 -103.828125 131.988281 -101.601562 126.6875 -100.28125 Z M 74.140625 -198.84375 L 74.140625 0 L 7.09375 0 C 11.832031 0 15.859375 -1.9375 19.171875 -5.8125 C 22.484375 -9.695312 24.140625 -14.007812 24.140625 -18.75 L 24.140625 -180.09375 C 24.140625 -184.832031 22.484375 -189.140625 19.171875 -193.015625 C 15.859375 -196.898438 11.832031 -198.84375 7.09375 -198.84375 Z M 74.140625 -198.84375 "/></g></g></g><g fill="#30cfd0" fill-opacity="1"><g transform="translate(179.11497, 257.999983)"><g><path d="M 145.71875 -169.015625 C 145.71875 -176.398438 143.398438 -182.835938 138.765625 -188.328125 C 134.128906 -193.828125 128.304688 -197.332031 121.296875 -198.84375 L 197.140625 -198.84375 C 191.648438 -198.082031 186.300781 -196.328125 181.09375 -193.578125 C 175.882812 -190.835938 170.910156 -187.429688 166.171875 -183.359375 C 161.441406 -179.285156 157.039062 -174.738281 152.96875 -169.71875 C 148.894531 -164.707031 145.34375 -159.550781 142.3125 -154.25 C 144.582031 -158.414062 145.71875 -163.335938 145.71875 -169.015625 Z M 142.3125 -154.25 C 142.3125 -154.25 142.125 -153.867188 141.75 -153.109375 C 142.125 -153.867188 142.3125 -154.25 142.3125 -154.25 Z M 58.515625 -29.828125 C 58.515625 -22.441406 60.832031 -16 65.46875 -10.5 C 70.113281 -5.007812 75.941406 -1.507812 82.953125 0 L 7.09375 0 C 12.40625 -0.757812 17.710938 -2.507812 23.015625 -5.25 C 28.316406 -8 33.332031 -11.410156 38.0625 -15.484375 C 42.800781 -19.554688 47.203125 -24.097656 51.265625 -29.109375 C 55.335938 -34.128906 58.890625 -39.289062 61.921875 -44.59375 C 59.648438 -40.238281 58.515625 -35.316406 58.515625 -29.828125 Z M 61.921875 -44.59375 C 62.304688 -44.976562 62.5 -45.359375 62.5 -45.734375 C 62.5 -45.359375 62.304688 -44.976562 61.921875 -44.59375 Z M 177.25 -17.328125 C 179.144531 -13.734375 181.984375 -10.085938 185.765625 -6.390625 C 189.554688 -2.703125 193.347656 -0.570312 197.140625 0 L 107.9375 0 C 111.351562 -0.1875 114.195312 -1.75 116.46875 -4.6875 C 118.738281 -7.625 119.875 -10.703125 119.875 -13.921875 C 119.875 -16.191406 119.210938 -18.367188 117.890625 -20.453125 L 26.984375 -181.515625 C 26.035156 -183.222656 24.800781 -185.066406 23.28125 -187.046875 C 21.769531 -189.035156 20.160156 -190.832031 18.453125 -192.4375 C 16.753906 -194.050781 14.910156 -195.425781 12.921875 -196.5625 C 10.929688 -197.707031 8.988281 -198.46875 7.09375 -198.84375 L 96.296875 -198.84375 C 93.078125 -198.65625 90.28125 -197.09375 87.90625 -194.15625 C 85.539062 -191.21875 84.359375 -188.140625 84.359375 -184.921875 C 84.359375 -182.835938 85.023438 -180.660156 86.359375 -178.390625 Z M 177.25 -17.328125 "/></g></g></g></svg>